<?xml version="1.0" encoding="UTF-8" standalone="no"?>
<!-- Created with Inkscape (http://www.inkscape.org/) -->

<svg
   xmlns:dc="http://purl.org/dc/elements/1.1/"
   xmlns:cc="http://creativecommons.org/ns#"
   xmlns:rdf="http://www.w3.org/1999/02/22-rdf-syntax-ns#"
   xmlns:svg="http://www.w3.org/2000/svg"
   xmlns="http://www.w3.org/2000/svg"
   xmlns:sodipodi="http://sodipodi.sourceforge.net/DTD/sodipodi-0.dtd"
   xmlns:inkscape="http://www.inkscape.org/namespaces/inkscape"
   width="16"
   height="16"
   id="svg12430"
   version="1.1"
   inkscape:version="0.48.5 r10040"
   sodipodi:docname="more-results.svg">
  <defs
     id="defs12432" />
  <sodipodi:namedview
     id="base"
     pagecolor="#7a7a7a"
     bordercolor="#666666"
     borderopacity="1.0"
     inkscape:pageopacity="1"
     inkscape:pageshadow="2"
     inkscape:zoom="32"
     inkscape:cx="2.7979612"
     inkscape:cy="8.3259463"
     inkscape:document-units="px"
     inkscape:current-layer="g14642-3-0"
     showgrid="false"
     borderlayer="true"
     inkscape:showpageshadow="false"
     inkscape:window-width="1366"
     inkscape:window-height="702"
     inkscape:window-x="0"
     inkscape:window-y="27"
     inkscape:window-maximized="1">
    <inkscape:grid
       type="xygrid"
       id="grid13002" />
  </sodipodi:namedview>
  <metadata
     id="metadata12435">
    <rdf:RDF>
      <cc:Work
         rdf:about="">
        <dc:format>image/svg+xml</dc:format>
        <dc:type
           rdf:resource="http://purl.org/dc/dcmitype/StillImage" />
        <dc:title />
      </cc:Work>
    </rdf:RDF>
  </metadata>
  <g
     inkscape:label="Layer 1"
     inkscape:groupmode="layer"
     id="layer1"
     transform="translate(0,-1036.3622)">
    <g
       style="display:inline"
       transform="translate(-141.99984,638.37113)"
       inkscape:label="zoom-in"
       id="g14642-3-0">
      <path
         style="fill:#505050;fill-opacity:1;fill-rule:evenodd;stroke:#000000;stroke-width:0;stroke-linecap:butt;stroke-linejoin:miter;stroke-miterlimit:4;stroke-opacity:1"
         d="M 7 5 L 7 7 L 5 7 L 5 9 L 7 9 L 7 11 L 9 11 L 9 9 L 11 9 L 11 7 L 9 7 L 9 5 L 7 5 z "
         transform="translate(141.99984,397.99107)"
         id="rect3757" />
      <path
         inkscape:connector-curvature="0"
         style="color:#bebebe;fill:#e7e7e7;fill-opacity:1;stroke:none;stroke-width:2;marker:none;visibility:visible;display:inline;overflow:visible"
         d="M 145.1875,400 C 144.5248,400 144,400.54899 144,401.21875 l 0,9.5625 c 0,0.66976 0.5248,1.21875 1.1875,1.21875 l 9.625,0 c 0.6627,0 1.1875,-0.54899 1.1875,-1.21875 l 0,-9.5625 C 156,400.54899 155.4752,400 154.8125,400 L 145.1875,400 z m 3.8125,3 2,0 0,2 2,0 0,2 -2,0 0,2 -2,0 0,-2 -2,0 0,-2 2,0 L 149,403 Z"
         id="rect11749-5-0-1-8" />
      <rect
         style="fill:none;stroke:none"
         id="rect3620-5-4"
         width="15.981825"
         height="16"
         x="142"
         y="398"
         rx="0"
         ry="0" />
    </g>
  </g>
</svg>
