<?xml version="1.0" encoding="UTF-8" standalone="no"?>
<!-- Created with Inkscape (http://www.inkscape.org/) -->

<svg
   xmlns:dc="http://purl.org/dc/elements/1.1/"
   xmlns:cc="http://creativecommons.org/ns#"
   xmlns:rdf="http://www.w3.org/1999/02/22-rdf-syntax-ns#"
   xmlns:svg="http://www.w3.org/2000/svg"
   xmlns="http://www.w3.org/2000/svg"
   xmlns:xlink="http://www.w3.org/1999/xlink"
   xmlns:sodipodi="http://sodipodi.sourceforge.net/DTD/sodipodi-0.dtd"
   xmlns:inkscape="http://www.inkscape.org/namespaces/inkscape"
   version="1.1"
   width="65"
   height="22"
   id="svg3273"
   inkscape:version="0.48+devel r12703"
   sodipodi:docname="toggle-off-us.svg">
  <sodipodi:namedview
     pagecolor="#f2f2f2"
     bordercolor="#bc1010"
     borderopacity="1"
     objecttolerance="10"
     gridtolerance="10"
     guidetolerance="10"
     inkscape:pageopacity="1"
     inkscape:pageshadow="2"
     inkscape:window-width="1920"
     inkscape:window-height="1029"
     id="namedview68"
     showgrid="true"
     showguides="true"
     inkscape:guide-bbox="true"
     inkscape:showpageshadow="false"
     showborder="true"
     inkscape:zoom="13.84981"
     inkscape:cx="27.105641"
     inkscape:cy="4.9976911"
     inkscape:window-x="0"
     inkscape:window-y="24"
     inkscape:window-maximized="1"
     inkscape:current-layer="layer1">
    <inkscape:grid
       type="xygrid"
       id="grid3045"
       empspacing="8"
       visible="true"
       enabled="true"
       snapvisiblegridlinesonly="true" />
    <sodipodi:guide
       orientation="1,0"
       position="0,11"
       id="guide4468" />
    <sodipodi:guide
       orientation="0,1"
       position="31,22"
       id="guide4470" />
    <sodipodi:guide
       orientation="0,1"
       position="31,0"
       id="guide4472" />
    <sodipodi:guide
       orientation="1,0"
       position="65,-1"
       id="guide4474" />
  </sodipodi:namedview>
  <defs
     id="defs3275">
    <linearGradient
       id="linearGradient3862">
      <stop
         id="stop3864"
         style="stop-color:#000000;stop-opacity:1;"
         offset="0" />
      <stop
         id="stop3866"
         style="stop-color:#000000;stop-opacity:0.36666667;"
         offset="1" />
    </linearGradient>
    <linearGradient
       id="linearGradient3921-5-9">
      <stop
         offset="0"
         style="stop-color:#191919;stop-opacity:1"
         id="stop3923-6-1" />
      <stop
         offset="1"
         style="stop-color:#4b4b4b;stop-opacity:1"
         id="stop3925-4-6" />
    </linearGradient>
    <clipPath
       clipPathUnits="userSpaceOnUse"
       id="clipPath5926">
      <path
         transform="matrix(0.75,0,0,0.75,-41,121.36217)"
         d="m 88,272 a 8,8 0 1 1 -16,0 8,8 0 1 1 16,0 z"
         sodipodi:ry="8"
         sodipodi:rx="8"
         sodipodi:cy="272"
         sodipodi:cx="80"
         id="path5928"
         style="color:#000000;fill:#ff00ff;fill-opacity:1;fill-rule:nonzero;stroke:none;stroke-width:2;marker:none;visibility:visible;display:inline;overflow:visible;enable-background:accumulate"
         sodipodi:type="arc"
         inkscape:export-filename="sclade-slider-normal.png"
         inkscape:export-xdpi="90"
         inkscape:export-ydpi="90" />
    </clipPath>
    <clipPath
       clipPathUnits="userSpaceOnUse"
       id="clipPath4783">
      <rect
         ry="6"
         rx="6"
         y="282.36218"
         x="-156"
         height="80"
         width="84"
         id="rect4785"
         style="fill:#ff00ff;fill-opacity:1;fill-rule:nonzero;stroke:none" />
    </clipPath>
    <linearGradient
       inkscape:collect="always"
       xlink:href="#linearGradient3969"
       id="linearGradient4893"
       gradientUnits="userSpaceOnUse"
       gradientTransform="matrix(0,-1,1,0,-224,480.36217)"
       x1="49"
       y1="272"
       x2="73"
       y2="272" />
    <linearGradient
       id="linearGradient3969">
      <stop
         id="stop3971"
         offset="0"
         style="stop-color:#000000;stop-opacity:1;" />
      <stop
         id="stop3973"
         offset="1"
         style="stop-color:#000000;stop-opacity:0;" />
    </linearGradient>
    <linearGradient
       id="linearGradient3895">
      <stop
         style="stop-color:#ffffff;stop-opacity:1;"
         offset="0"
         id="stop3897" />
      <stop
         style="stop-color:#ffffff;stop-opacity:0;"
         offset="1"
         id="stop3899" />
    </linearGradient>
    <clipPath
       clipPathUnits="userSpaceOnUse"
       id="clipPath4342">
      <rect
         style="color:#000000;fill:#ff00ff;fill-opacity:1;fill-rule:nonzero;stroke:none;stroke-width:2;marker:none;visibility:visible;display:inline;overflow:visible;enable-background:accumulate"
         id="rect4344"
         width="28"
         height="18"
         x="18"
         y="2"
         ry="9"
         rx="9" />
    </clipPath>
    <clipPath
       clipPathUnits="userSpaceOnUse"
       id="clipPath4372">
      <rect
         rx="8"
         ry="8"
         y="3"
         x="19"
         height="16.000002"
         width="26"
         id="rect4374"
         style="color:#000000;fill:#ff00ff;fill-opacity:1;fill-rule:nonzero;stroke:none;stroke-width:2;marker:none;visibility:visible;display:inline;overflow:visible;enable-background:accumulate" />
    </clipPath>
    <linearGradient
       id="linearGradient3921-5-9-7">
      <stop
         offset="0"
         style="stop-color:#004484;stop-opacity:1;"
         id="stop3923-6-1-8" />
      <stop
         offset="1"
         style="stop-color:#2998ff;stop-opacity:1;"
         id="stop3925-4-6-9" />
    </linearGradient>
    <linearGradient
       y2="25"
       x2="35"
       y1="3"
       x1="35"
       gradientUnits="userSpaceOnUse"
       id="linearGradient3878"
       xlink:href="#linearGradient4115-2-5"
       inkscape:collect="always" />
    <linearGradient
       inkscape:collect="always"
       id="linearGradient4115-2-5">
      <stop
         style="stop-color:#ffffff;stop-opacity:1;"
         offset="0"
         id="stop4117-3-6" />
      <stop
         style="stop-color:#ffffff;stop-opacity:0;"
         offset="1"
         id="stop4119-6-8" />
    </linearGradient>
    <linearGradient
       inkscape:collect="always"
       xlink:href="#linearGradient4873"
       id="linearGradient4879"
       x1="41"
       y1="404.36218"
       x2="55"
       y2="404.36218"
       gradientUnits="userSpaceOnUse"
       gradientTransform="translate(-452.36218,-356.36218)" />
    <linearGradient
       inkscape:collect="always"
       id="linearGradient4873">
      <stop
         style="stop-color:#e6e6e6;stop-opacity:1"
         offset="0"
         id="stop4875" />
      <stop
         style="stop-color:#f2f2f2;stop-opacity:1"
         offset="1"
         id="stop4877" />
    </linearGradient>
    <linearGradient
       inkscape:collect="always"
       xlink:href="#linearGradient3969-6"
       id="linearGradient4893-9"
       gradientUnits="userSpaceOnUse"
       gradientTransform="matrix(0,-1,1,0,-224,480.36217)"
       x1="49"
       y1="272"
       x2="73"
       y2="272" />
    <linearGradient
       id="linearGradient3969-6">
      <stop
         id="stop3971-6"
         offset="0"
         style="stop-color:#000000;stop-opacity:1;" />
      <stop
         id="stop3973-0"
         offset="1"
         style="stop-color:#000000;stop-opacity:0;" />
    </linearGradient>
    <linearGradient
       y2="272"
       x2="73"
       y1="272"
       x1="54"
       gradientTransform="matrix(0,1.1666667,1.1666667,0,-269.33333,334.36217)"
       gradientUnits="userSpaceOnUse"
       id="linearGradient4164"
       xlink:href="#linearGradient3895-1"
       inkscape:collect="always" />
    <linearGradient
       id="linearGradient3895-1">
      <stop
         style="stop-color:#ffffff;stop-opacity:1;"
         offset="0"
         id="stop3897-7" />
      <stop
         style="stop-color:#ffffff;stop-opacity:0;"
         offset="1"
         id="stop3899-3" />
    </linearGradient>
  </defs>
  <metadata
     id="metadata3278">
    <rdf:RDF>
      <cc:Work
         rdf:about="">
        <dc:format>image/svg+xml</dc:format>
        <dc:type
           rdf:resource="http://purl.org/dc/dcmitype/StillImage" />
        <dc:title></dc:title>
      </cc:Work>
    </rdf:RDF>
  </metadata>
  <g
     inkscape:groupmode="layer"
     id="layer1"
     inkscape:label="Trough">
    <rect
       style="color:#000000;fill:#333333;fill-opacity:1;fill-rule:nonzero;stroke:none;stroke-width:2;marker:none;visibility:visible;display:inline;overflow:visible;enable-background:accumulate;opacity:0.75"
       id="rect3560"
       width="30"
       height="16.000002"
       x="17"
       y="3"
       ry="8"
       rx="8" />
    <g
       id="g3548"
       style="opacity:0.3;fill:#cccccc;fill-opacity:1">
      <path
         style="font-size:11px;font-style:normal;font-variant:normal;font-weight:bold;font-stretch:normal;line-height:125%;letter-spacing:0px;word-spacing:0px;fill:#cccccc;fill-opacity:1;stroke:none;font-family:Aller;-inkscape-font-specification:Aller Bold"
         id="path3534"
         d="M 4.0888661,14.07 C 3.6404637,14.069999 3.252959,13.9925 2.9263491,13.837496 2.5997355,13.682494 2.3312498,13.469366 2.1208909,13.198112 1.9105298,12.921323 1.7527598,12.597479 1.6475804,12.22658 1.5479355,11.850148 1.4981135,11.440499 1.4981139,10.997633 1.4981135,10.554772 1.5479353,10.145124 1.6475804,9.7686864 1.7527598,9.3867211 1.9105298,9.0573416 2.1208909,8.7805469 2.3312498,8.5037626 2.5997355,8.2878669 2.9263491,8.1328589 3.252959,7.9778627 3.6404637,7.9003616 4.0888661,7.9003555 c 0.4483957,6.1e-6 0.8359011,0.077507 1.162517,0.2325034 0.3266077,0.155008 0.5950932,0.3709037 0.8054582,0.647688 0.2103552,0.2767947 0.3653572,0.6061742 0.4650068,0.9881395 0.1051746,0.3764376 0.1577641,0.7860856 0.1577702,1.2289466 -6.1e-6,0.442866 -0.052593,0.852515 -0.1577702,1.228947 -0.09965,0.370899 -0.2546516,0.694743 -0.4650068,0.971532 -0.210365,0.271254 -0.4788505,0.484382 -0.8054582,0.639384 C 4.9247672,13.992498 4.5372618,14.069999 4.0888661,14.07 m 0,-1.013051 c 0.858044,1e-6 1.2870679,-0.686438 1.2870724,-2.059316 C 5.375934,10.311198 5.2707541,9.7963695 5.0603982,9.453146 4.8555702,9.1099316 4.5344944,8.9383221 4.0971698,8.9383171 3.228048,8.9383221 2.7934886,9.62476 2.7934901,10.997633 c -1.5e-6,1.372878 0.4317897,2.059317 1.295376,2.059316"
         inkscape:connector-curvature="0" />
      <path
         style="font-size:11px;font-style:normal;font-variant:normal;font-weight:bold;font-stretch:normal;line-height:125%;letter-spacing:0px;word-spacing:0px;fill:#cccccc;fill-opacity:1;stroke:none;font-family:Aller;-inkscape-font-specification:Aller Bold"
         id="path3536"
         d="m 7.789,7.9999998 c 0.1716094,-0.033209 0.3349152,-0.049816 0.4899179,-0.049822 0.1660731,6.1e-6 0.3376825,0.016614 0.514829,0.049822 l 2.3084271,3.8030912 0,-3.8030912 c 0.199285,-0.033209 0.39027,-0.049816 0.572955,-0.049822 0.171605,6.1e-6 0.337678,0.016614 0.498221,0.049822 l 0,5.9703552 c -0.17715,0.03322 -0.337687,0.04982 -0.481614,0.04982 -0.155006,0 -0.323848,-0.01661 -0.506525,-0.04982 l -2.3250346,-3.794788 0,3.794788 c -0.1771464,0.03322 -0.3570595,0.04982 -0.53974,0.04982 -0.182682,0 -0.359827,-0.01661 -0.5314364,-0.04982 l 0,-5.9703552"
         inkscape:connector-curvature="0" />
    </g>
    <g
       id="g3555"
       transform="translate(2,0)"
       style="fill:#cccccc;fill-opacity:1">
      <path
         style="font-size:11px;font-style:normal;font-variant:normal;font-weight:bold;font-stretch:normal;line-height:125%;letter-spacing:0px;word-spacing:0px;fill:#cccccc;fill-opacity:1;stroke:none;font-family:Aller;-inkscape-font-specification:Aller Bold"
         id="path3542"
         d="m 51.118515,13.821442 c -0.436073,0 -0.812923,-0.07537 -1.130551,-0.22611 -0.317633,-0.15074 -0.578737,-0.358008 -0.783311,-0.621803 -0.204577,-0.269179 -0.358009,-0.584118 -0.460296,-0.944819 -0.09691,-0.366081 -0.145358,-0.764466 -0.145357,-1.195154 -10e-7,-0.430683 0.04845,-0.829068 0.145357,-1.1951555 0.102287,-0.3714625 0.255719,-0.6917852 0.460296,-0.960969 0.204574,-0.2691736 0.465678,-0.4791331 0.783311,-0.6298788 0.317628,-0.1507344 0.694478,-0.2261045 1.130551,-0.2261104 0.436067,5.9e-6 0.812917,0.075376 1.130552,0.2261104 0.317626,0.1507457 0.57873,0.3607052 0.783311,0.6298788 0.20457,0.2691838 0.355311,0.5895065 0.452221,0.960969 0.102282,0.3660875 0.153426,0.7644725 0.153432,1.1951555 -6e-6,0.430688 -0.05115,0.829073 -0.153432,1.195154 -0.09691,0.360701 -0.247651,0.67564 -0.452221,0.944819 -0.204581,0.263795 -0.465685,0.471063 -0.783311,0.621803 -0.317635,0.15074 -0.694485,0.22611 -1.130552,0.22611 m 0,-0.985195 c 0.834451,10e-7 1.251678,-0.667563 1.251683,-2.002691 -5e-6,-0.667561 -0.102293,-1.1682335 -0.306864,-1.5020195 -0.199197,-0.3337772 -0.511444,-0.5006681 -0.936743,-0.5006729 -0.845225,4.8e-6 -1.267836,0.6675681 -1.267833,2.0026924 -3e-6,1.335128 0.419917,2.002692 1.259757,2.002691"
         inkscape:connector-curvature="0" />
      <path
         style="font-size:11px;font-style:normal;font-variant:normal;font-weight:bold;font-stretch:normal;line-height:125%;letter-spacing:0px;word-spacing:0px;fill:#cccccc;fill-opacity:1;stroke:none;font-family:Aller;-inkscape-font-specification:Aller Bold"
         id="path3544"
         d="m 54.819505,7.9183468 3.294751,0 c 0.0323,0.161513 0.04845,0.325712 0.04845,0.4925975 -4e-6,0.1776633 -0.01616,0.3472459 -0.04845,0.5087483 l -2.115747,0 0,1.3647374 1.679677,0 c 0.0323,0.172278 0.04845,0.339169 0.04845,0.500673 -4e-6,0.172277 -0.01616,0.34186 -0.04845,0.508749 l -1.679677,0 0,2.430686 c -0.204577,0.0323 -0.398385,0.04845 -0.581426,0.04845 -0.199194,0 -0.398386,-0.01615 -0.597578,-0.04845 l 0,-5.8061912"
         inkscape:connector-curvature="0" />
      <path
         style="font-size:11px;font-style:normal;font-variant:normal;font-weight:bold;font-stretch:normal;line-height:125%;letter-spacing:0px;word-spacing:0px;fill:#cccccc;fill-opacity:1;stroke:none;font-family:Aller;-inkscape-font-specification:Aller Bold"
         id="path3546"
         d="m 58.92028,7.9183468 3.29475,0 c 0.03229,0.161513 0.04845,0.325712 0.04845,0.4925975 -5e-6,0.1776633 -0.01616,0.3472459 -0.04845,0.5087483 l -2.115746,0 0,1.3647374 1.679677,0 c 0.03229,0.172278 0.04845,0.339169 0.04845,0.500673 -4e-6,0.172277 -0.01616,0.34186 -0.04845,0.508749 l -1.679677,0 0,2.430686 c -0.204578,0.0323 -0.398387,0.04845 -0.581427,0.04845 -0.199194,0 -0.398386,-0.01615 -0.597577,-0.04845 l 0,-5.8061912"
         inkscape:connector-curvature="0" />
    </g>
    <g
       transform="translate(-9,-393.36217)"
       id="g4941"
       inkscape:export-filename="radio-unselected.png"
       inkscape:export-xdpi="90"
       inkscape:export-ydpi="90">
      <path
         inkscape:export-ydpi="90"
         inkscape:export-xdpi="90"
         inkscape:export-filename="scale-slider-normal.png"
         transform="matrix(0.855,0,0,0.85666688,-20.415625,171.34878)"
         d="m 80,262.63477 c -5.156273,0 -9.365234,4.20896 -9.365234,9.36523 0,5.15627 4.208961,9.36523 9.365234,9.36523 5.156273,0 9.365234,-4.20896 9.365234,-9.36523 0,-5.15627 -4.208961,-9.36523 -9.365234,-9.36523 z"
         id="path4712"
         style="opacity:0.15;color:#000000;fill:#000000;fill-opacity:1;fill-rule:nonzero;stroke:none;stroke-width:2;marker:none;visibility:visible;display:inline;overflow:visible;enable-background:accumulate"
         inkscape:original="M 80 264 C 75.581722 264 72 267.58172 72 272 C 72 276.41828 75.581722 280 80 280 C 84.418278 280 88 276.41828 88 272 C 88 267.58172 84.418278 264 80 264 z "
         inkscape:radius="1.3655443"
         sodipodi:type="inkscape:offset" />
      <circle
         inkscape:export-ydpi="90"
         inkscape:export-xdpi="90"
         inkscape:export-filename="scale-slider-normal.png"
         transform="matrix(0.875,0,0,0.875,-23,167.36217)"
         id="path4714"
         style="opacity:0.5;color:#000000;fill:none;stroke:none;stroke-width:2;marker:none;visibility:visible;display:inline;overflow:visible;enable-background:accumulate"
         cx="80"
         cy="272"
         r="8"
         d="m 88,272 a 8,8 0 0 1 -8,8 8,8 0 0 1 -8,-8 8,8 0 0 1 8,-8 8,8 0 0 1 8,8 z" />
      <circle
         inkscape:export-ydpi="90"
         inkscape:export-xdpi="90"
         inkscape:export-filename="scale-slider-normal.png"
         style="opacity:0.2;color:#000000;fill:#000000;fill-opacity:1;fill-rule:nonzero;stroke:none;stroke-width:2;marker:none;visibility:visible;display:inline;overflow:visible;enable-background:accumulate"
         id="path4716"
         transform="matrix(0.875,0,0,0.875,-22,167.36217)"
         cx="80"
         cy="272"
         r="8"
         d="m 88,272 a 8,8 0 0 1 -8,8 8,8 0 0 1 -8,-8 8,8 0 0 1 8,-8 8,8 0 0 1 8,8 z" />
      <circle
         inkscape:export-ydpi="90"
         inkscape:export-xdpi="90"
         inkscape:export-filename="sclade-slider-normal.png"
         style="color:#000000;fill:url(#linearGradient4879);fill-opacity:1;fill-rule:nonzero;stroke:none;stroke-width:2;marker:none;visibility:visible;display:inline;overflow:visible;enable-background:accumulate"
         id="path5928-7"
         cx="-404.36218"
         cy="48"
         r="7"
         transform="matrix(0,-1,1,0,0,0)"
         d="m -397.36218,48 a 7,7 0 0 1 -7,7 7,7 0 0 1 -7,-7 7,7 0 0 1 7,-7 7,7 0 0 1 7,7 z" />
      <path
         style="opacity:0.1;color:#000000;fill:url(#linearGradient4893-9);fill-opacity:1;fill-rule:nonzero;stroke:none;stroke-width:2;marker:none;visibility:visible;display:inline;overflow:visible;enable-background:accumulate"
         d="m 41,424.36217 c 0,3.86599 3.13401,7 7,7 3.86599,0 7,-3.13401 7,-7 0,-3.86599 -3.13401,-7 -7,-7 -3.86599,0 -7,3.13401 -7,7 z m 1,0 c 0,-3.31371 2.68629,-6 6,-6 3.31371,0 6,2.68629 6,6 0,3.31371 -2.68629,6 -6,6 -3.31371,0 -6,-2.68629 -6,-6 z"
         id="path4774"
         inkscape:connector-curvature="0"
         inkscape:export-filename="scale-slider-normal.png"
         inkscape:export-xdpi="90"
         inkscape:export-ydpi="90" />
      <circle
         inkscape:export-ydpi="90"
         inkscape:export-xdpi="90"
         inkscape:export-filename="scale-slider-normal.png"
         transform="matrix(0.875,0,0,0.875,-22,166.36217)"
         id="path4776"
         style="opacity:0.5;color:#000000;fill:none;stroke:none;stroke-width:2;marker:none;visibility:visible;display:inline;overflow:visible;enable-background:accumulate"
         cx="80"
         cy="272"
         r="8"
         d="m 88,272 a 8,8 0 0 1 -8,8 8,8 0 0 1 -8,-8 8,8 0 0 1 8,-8 8,8 0 0 1 8,8 z" />
      <path
         inkscape:export-ydpi="90"
         inkscape:export-xdpi="90"
         inkscape:export-filename="scale-slider-normal.png"
         inkscape:connector-curvature="0"
         id="path4778"
         d="m 41,404.36217 c 0,-3.866 3.134005,-7 7,-7 3.865995,0 7,3.134 7,7 0,3.86599 -3.134005,7 -7,7 -3.865995,0 -7,-3.13401 -7,-7 z m 1.166667,0 c 0,3.22167 2.611676,5.83333 5.833333,5.83333 3.221657,0 5.833333,-2.61166 5.833333,-5.83333 0,-3.22166 -2.611676,-5.83333 -5.833333,-5.83333 -3.221657,0 -5.833333,2.61167 -5.833333,5.83333 z"
         style="opacity:0.6;color:#000000;fill:url(#linearGradient4164);fill-opacity:1;fill-rule:nonzero;stroke:none;stroke-width:2;marker:none;visibility:visible;display:inline;overflow:visible;enable-background:accumulate" />
    </g>
  </g>
</svg>
